<svg width="60" height="60" viewBox="0 0 60 60" fill="none" xmlns="http://www.w3.org/2000/svg">
<path fill-rule="evenodd" clip-rule="evenodd" d="M40.9095 21.8181C40.9095 27.843 36.0252 32.7272 30.0004 32.7272C23.9755 32.7272 19.0913 27.843 19.0913 21.8181C19.0913 15.7932 23.9755 10.9091 30.0004 10.9091C36.0252 10.9091 40.9095 15.7932 40.9095 21.8181ZM35.4549 21.8181C35.4549 24.8307 33.0129 27.2727 30.0004 27.2727C26.9879 27.2727 24.5459 24.8307 24.5459 21.8181C24.5459 18.8057 26.9879 16.3636 30.0004 16.3636C33.0129 16.3636 35.4549 18.8057 35.4549 21.8181Z" fill="white"/>
<path fill-rule="evenodd" clip-rule="evenodd" d="M30 0C13.4315 0 0 13.4315 0 30C0 46.5685 13.4315 60 30 60C46.5685 60 60 46.5685 60 30C60 13.4315 46.5685 0 30 0ZM5.45455 30C5.45455 35.7005 7.39786 40.9473 10.6581 45.1137C15.143 39.2425 22.2171 35.4545 30.1759 35.4545C38.0313 35.4545 45.0251 39.1448 49.5177 44.8863C52.6718 40.7572 54.5455 35.5975 54.5455 30C54.5455 16.4439 43.5562 5.45455 30 5.45455C16.4439 5.45455 5.45455 16.4439 5.45455 30ZM30 54.5455C24.1357 54.5455 18.7518 52.4888 14.53 49.0576C17.9823 44.1305 23.7029 40.9091 30.1759 40.9091C36.5684 40.9091 42.2272 44.0512 45.6922 48.8752C41.4379 52.4157 35.9675 54.5455 30 54.5455Z" fill="white"/>
</svg>
